<svg width="970" height="268" viewBox="0 0 970 268" fill="none" xmlns="http://www.w3.org/2000/svg">
<path d="M756.759 262.396V5.27454H847.676C933.633 5.27454 970 62.6325 970 132.187C970 208.664 925.699 262.396 850.651 262.396H756.759ZM780.562 240.969H851.973C908.838 240.969 945.204 200.423 945.204 134.165C945.204 65.5993 906.193 26.7013 842.386 26.7013H780.562C780.562 98.2339 780.562 169.437 780.562 240.969Z" fill="#FF957D"/>
<path d="M483.943 262.396V5.27454H509.731C560.644 77.7961 611.558 149.658 662.802 225.147H663.463V5.27454H687.267V262.396H661.479C611.227 190.864 559.652 119.99 508.078 45.491H507.747V262.396H483.943Z" fill="#FF957D"/>
<path d="M423.022 262.397H399.776L306.018 4.86273H329.522L423.022 262.397ZM232.148 218.616C233.87 212.607 237.055 207.284 241.705 202.649C246.354 197.841 251.778 194.064 257.977 191.317C267.964 186.682 280.62 184.45 295.945 184.621C299.389 184.621 302.144 184.535 304.21 184.364C306.448 184.02 308.859 183.334 311.442 182.304C314.197 181.102 316.177 179.471 317.382 177.41C318.932 173.633 318.932 169.942 317.382 166.336C315.833 162.559 313.336 159.297 309.892 156.55C306.965 154.146 302.316 151.314 295.945 148.052C289.746 144.789 286.044 142.729 284.838 141.871C274.507 135.69 268.652 128.479 267.275 120.238C266.586 117.147 266.758 113.714 267.791 109.937C268.825 105.988 269.858 102.983 270.891 100.923C272.096 98.6909 273.904 95.3429 276.315 90.879C291.123 63.9238 301.024 35.2517 306.018 4.86273C303.435 36.1102 296.375 64.0097 284.838 88.5612C280.706 97.4891 278.381 103.842 277.865 107.619C277.348 111.053 277.606 114.486 278.64 117.92C279.845 121.182 281.739 123.758 284.322 125.646C289.143 129.08 296.203 133.286 305.501 138.265C314.972 143.244 323.237 148.137 330.297 152.945C337.357 157.752 343.125 163.246 347.602 169.427C349.84 173.204 350.96 177.239 350.96 181.531C350.96 182.218 350.96 182.819 350.96 183.334C350.099 190.373 347.085 195.524 341.92 198.786C337.787 201.361 331.847 203.078 324.098 203.936C320.31 204.451 316.263 204.709 311.958 204.709C307.654 204.709 302.746 204.709 297.236 204.709C291.898 204.537 287.852 204.451 285.097 204.451C284.924 204.451 284.752 204.451 284.58 204.451C276.487 204.451 263.452 206.027 263.452 206.027C263.452 206.027 256.909 207.057 253.121 208.602C251.537 209.249 250.848 209.663 247.955 211.178C246.23 212.081 242.479 215.611 241.446 217.328C240.069 219.388 238.863 221.535 237.83 223.766C236.797 225.998 236.022 228.23 235.506 230.462C235.161 232.351 234.989 234.24 234.989 236.128C234.989 239.905 235.678 243.597 237.055 247.202C238.949 252.353 241.618 257.246 245.062 261.881C239.724 256.044 237.055 253.125 237.055 253.125C232.751 248.661 230.254 243.339 229.565 237.158C229.565 236.3 229.565 235.355 229.565 234.325C229.565 229.003 230.426 223.766 232.148 218.616Z" fill="#FF957D"/>
<mask id="mask0_45_448" style="mask-type:alpha" maskUnits="userSpaceOnUse" x="0" y="0" width="185" height="268">
<path d="M96.5372 268C58.5174 268 14.8773 248.881 0 192.512L21.82 184.6C32.7301 225.806 62.8153 246.244 97.1984 246.244C125.961 246.244 159.022 231.739 159.022 196.138C159.022 162.514 129.267 155.921 104.141 148.01L80.0068 140.428C54.2195 132.187 8.92638 116.364 8.92638 68.5658C8.92638 22.7454 51.2441 0 92.5699 0C132.904 0 166.626 21.7565 177.866 61.6433L156.708 70.214C147.12 40.8758 123.316 21.7565 90.2557 21.7565C59.1786 21.7565 33.7219 39.2276 33.7219 66.9176C33.7219 100.871 71.7417 112.738 88.272 118.012L113.398 126.253C142.161 135.483 184.479 146.032 184.479 192.841C184.479 238.662 143.814 268 96.5372 268Z" fill="black"/>
</mask>
<g mask="url(#mask0_45_448)">
<rect x="-10.3314" y="-10.3013" width="216.961" height="180.274" fill="#FF957D"/>
</g>
<mask id="mask1_45_448" style="mask-type:alpha" maskUnits="userSpaceOnUse" x="0" y="10" width="186" height="258">
<path d="M121.395 134.175C129.488 137.952 138.545 134.59 144.176 137.008C149.806 139.426 160.999 145.592 167.886 151.945C174.774 158.297 177.185 161.903 180.801 169.972C184.417 178.042 185.846 191.519 184.985 200.104C183.607 214.182 179.216 226.029 171.812 235.643C162.514 247.318 150.547 255.903 135.91 261.397C121.274 266.891 106.294 268.951 90.9686 267.578C75.6436 266.204 61.4378 261.912 48.3513 254.701C38.7086 249.379 30.099 242.597 22.5226 234.356C15.1184 226.286 9.4361 217.273 5.47571 207.315C2.37627 199.417 1.0848 195.549 0.568224 187.48C0.223842 179.411 1.60137 171.427 4.70081 163.529C7.80025 155.632 12.6216 149.107 19.1649 143.957C19.337 143.785 19.5331 143.699 19.6814 143.442C25.3637 138.119 32.1653 135.458 40.0861 135.458C41.4636 135.458 42.8411 135.544 44.2187 135.716C53.6892 137.089 60.8351 141.896 65.6564 150.138C69.4446 156.49 70.9944 164.216 70.3056 173.316C69.789 178.466 67.6367 182.162 64.8816 192.635C63.5041 197.614 63.6763 201.134 65.3982 203.194C66.6035 204.396 68.2393 205.083 70.3056 205.254C72.3719 205.254 74.1799 204.739 75.7297 203.709C76.5906 203.194 77.4516 202.593 78.3125 201.906C79.3457 201.048 80.3788 200.104 81.412 199.074C82.4451 198.043 83.3061 197.185 83.9948 196.498C89.3327 192.034 95.4455 189.802 102.333 189.802C107.843 189.802 112.837 191.348 117.314 194.438C121.963 197.357 125.407 201.22 127.645 206.027C121.963 200.19 115.075 197.271 106.982 197.271C101.644 197.271 96.737 198.644 92.26 201.391C90.3659 202.593 87.9552 204.568 85.028 207.315C82.1007 210.062 80.1205 211.779 79.0874 212.465C73.4051 217.101 68.1533 218.818 63.3319 217.616C60.5768 216.929 58.2523 215.47 56.3582 213.238C54.4641 210.834 53.0865 208.173 52.2256 205.254C51.3646 201.821 51.1924 196.069 51.709 188C52.2256 180.445 52.3116 178.895 50.9341 175.118C49.5566 171.169 47.1459 167.822 43.7021 165.074C40.2583 162.327 36.4701 160.439 32.3375 159.409C30.099 159.065 27.9466 158.894 25.8803 158.894C24.5028 158.894 23.1253 158.98 21.7477 159.151C21.7477 159.151 21.4033 159.237 20.7146 159.409C19.1649 159.924 17.7873 160.611 16.582 161.469C13.1382 163.873 10.297 168.079 8.05854 174.088C7.54196 175.805 7.28368 177.522 7.28368 179.239C7.28368 180.784 7.28368 182.501 7.28368 184.39C8.6612 201.902 17.2708 214.611 34.1455 230.75C49.8149 245.859 66.5174 255.474 84.2531 259.594C93.5514 261.826 103.194 262.169 113.181 260.624C123.34 259.251 132.381 255.903 140.301 250.58C148.566 244.915 154.851 237.446 159.156 228.175C163.633 219.075 165.183 209.89 163.805 200.619C162.6 191.348 160.138 180.274 149.806 169.972C139.475 159.671 137.977 160.358 128.678 155.035C124.89 152.803 120.499 150.571 115.506 148.339C110.512 146.107 106.81 144.562 104.399 143.704C101.989 142.845 96.9953 141.129 89.4188 138.553C81.8424 135.978 77.7099 134.518 77.0211 134.175C54.9806 126.449 38.6225 117.95 27.9466 108.679C20.7146 102.327 15.0323 94.8583 10.8997 86.2738C6.93933 77.5177 5.5618 68.6757 6.76714 59.7478C7.80029 50.9917 11.2441 43.0081 17.0986 35.7972C22.9531 28.4145 30.1851 22.663 38.7947 18.5424C53.2587 11.6748 71.0805 9.09951 92.26 10.8164C116.367 12.705 139.268 18.9716 160.964 29.6164V63.3533C147.189 44.8109 128.506 31.9342 104.916 24.7232C85.8028 19.0575 68.6698 18.2849 53.517 22.4054C44.3909 24.9808 36.7284 29.4447 30.5295 35.7972C24.5028 42.1497 22.0061 49.704 23.0392 58.4602C24.0723 67.5597 28.6354 75.8866 36.7284 83.4409C42.4107 88.5916 42.669 105.761 53.517 110.74C59.8881 113.658 70.5639 116.988 83.9948 122.482C97.5979 127.805 114.679 130.913 121.395 134.175Z" fill="black"/>
</mask>
<g mask="url(#mask1_45_448)">
<rect x="-72.3202" y="123.616" width="340.938" height="180.274" fill="#FF957D"/>
</g>
</svg>
