<svg width="52" height="48" viewBox="0 0 52 48" fill="none" xmlns="http://www.w3.org/2000/svg">
<path d="M22.5 44C22.5 45.933 24.067 47.5 26 47.5C27.933 47.5 29.5 45.933 29.5 44L22.5 44ZM28.4749 1.52513C27.108 0.158291 24.892 0.158291 23.5251 1.52513L1.25126 23.799C-0.115572 25.1658 -0.115572 27.3819 1.25126 28.7487C2.6181 30.1156 4.83418 30.1156 6.20101 28.7487L26 8.94975L45.799 28.7487C47.1658 30.1156 49.3819 30.1156 50.7487 28.7487C52.1156 27.3819 52.1156 25.1658 50.7487 23.799L28.4749 1.52513ZM29.5 44L29.5 4L22.5 4L22.5 44L29.5 44Z" fill="#FF957D"/>
</svg>
