<svg width="349" height="103" viewBox="0 0 349 103" fill="none" xmlns="http://www.w3.org/2000/svg">
<g clip-path="url(#clip0_182_1679)">
<path d="M172.4 1.97998H181.73C200.16 28.3 218.58 54.38 237.13 81.78H237.37V1.97998H245.98V95.3H236.65C218.46 69.34 199.8 43.61 181.14 16.57H181.02V95.3H172.41V1.97998H172.4Z" fill="#003478"/>
<path d="M271.1 1.97998H304C335.11 1.97998 348.27 22.8 348.27 48.04C348.27 75.8 332.24 95.3 305.08 95.3H271.1V1.97998ZM305.56 87.53C326.14 87.53 339.3 72.81 339.3 48.77C339.3 24.73 325.18 9.76998 302.09 9.76998H279.72V87.54H305.56V87.53Z" fill="#003478"/>
<path d="M108.9 1.98975H118.35L156.16 95.3097H147.07C142.64 84.4197 108.9 1.98975 108.9 1.98975Z" fill="#003478"/>
<path d="M83.7503 79.5C85.5303 77.62 87.6903 76.18 90.1103 75.11C94.0103 73.29 98.9603 72.5 104.96 72.48C106.93 72.48 109.61 72.08 111.07 71.52C113.75 70.48 114.24 67.3 113.34 65.26C112.71 63.82 111.77 62.54 110.41 61.47C108.09 59.65 101.08 56.05 100.61 55.71C96.5703 53.29 93.6503 50.73 93.3003 47.26C92.9503 43.79 93.3203 42 97.2703 35.71C101.22 29.42 106.93 13.89 108.89 1.97998C107.88 14.24 105.12 25.18 100.61 34.8C98.9903 38.3 97.0203 41.3 97.5803 45.67C97.7803 47.18 99.3903 48.6 100.4 49.34C105.73 53.03 111.06 54.8 118.38 60.05C122.91 63.3 126.12 66.56 126.46 71.26C126.88 76.99 121.66 80.13 116.08 80.73C111.36 81.24 101.96 80.35 100.5 80.25C92.3203 79.64 89.4903 80.3 85.0503 83.48C82.6403 85.21 81.2303 87.97 81.1103 92.67C81.0203 96.37 83.7003 100.95 85.0503 102.77C85.0503 102.77 79.6803 96.96 78.9903 93.07C77.9003 86.97 80.3703 83.04 83.7403 79.49L83.7503 79.5Z" fill="#003478"/>
<path d="M66.8898 71.64C65.9998 78.5 63.7398 90.05 46.9898 95.46C23.9898 102.91 0.909826 88.03 0.00982644 67.43C-0.310174 60.02 7.22983 51.22 16.1398 51.76C29.5598 52.57 30.6798 65.63 28.3998 73.61C27.5998 76.41 27.8098 78.25 30.4398 78.32C31.2198 78.35 32.8898 77.88 34.6198 76.04C36.7198 73.8 39.5798 72.18 43.1898 72.59C47.0698 73.02 51.1698 76.85 52.0098 78.66C49.8698 76.46 46.4198 73.95 41.7298 74.9C38.2498 75.61 37.1098 78.55 34.6998 80.88C31.7298 83.78 27.2298 83.16 25.1898 81.34C22.8498 79.24 23.2198 74.91 23.4398 71.86C23.8698 65.83 20.2098 59.17 15.3298 59.11C9.64983 59.04 5.94983 63.83 5.94983 68.8C5.95983 86.36 24.2698 95.71 38.7798 94.59C52.4898 93.53 59.6398 79.25 58.9298 71.83C58.4798 67.14 57.7498 66.03 54.8898 62.17C51.0698 57.41 44.1098 55.67 37.9098 53.72L29.1798 50.97C19.8498 47.98 3.45983 42.23 3.45983 24.89C3.45983 7.55 18.7698 0 33.7298 0C48.6898 0 60.5298 7.9 64.5898 22.37L56.9398 25.48C53.4698 14.84 44.8498 7.9 32.8898 7.9C21.6398 7.9 12.4298 14.24 12.4298 24.29C12.4298 36.61 26.1898 40.92 32.1698 42.83L41.2598 45.82C51.1798 49.01 65.5598 52.64 66.8898 67.69C66.9898 69.09 67.0598 70.35 66.8898 71.64Z" fill="#003478"/>
</g>
<defs>
<clipPath id="clip0_182_1679">
<rect width="348.27" height="102.78" fill="white"/>
</clipPath>
</defs>
</svg>
